<?xml version="1.0" encoding="UTF-8"?>
<svg width="126px" height="87px" viewBox="0 0 126 87" version="1.1" xmlns="http://www.w3.org/2000/svg" xmlns:xlink="http://www.w3.org/1999/xlink">
    <!-- Generator: Sketch 44.1 (41455) - http://www.bohemiancoding.com/sketch -->
    <title>@1xSlice</title>
    <desc>Created with Sketch.</desc>
    <defs></defs>
    <g id="Page-1" stroke="none" stroke-width="1" fill="none" fill-rule="evenodd">
        <g id="leo理优教育" transform="translate(4.000000, 14.000000)" fill-rule="nonzero">
            <path d="M33.8529,-2.71050543e-20 L16.4135,49.3339 C15.3877,52.2249 14.7348,53.4373 14.7348,54.2766 C14.7551019,54.8117917 14.9904657,55.316158 15.3876,55.6755 C15.7256856,55.9981544 16.1445217,56.223671 16.6,56.3283 C17.1142999,56.3898253 17.6350951,56.2920955 18.0921,56.0483 C21.5729934,53.3436701 24.7892863,50.3147174 27.6977,47.0022 L28.6303,48.028 C24.3403,53.437 18.6516,59.0325 16.3203,60.2449 C13.9256974,61.4419018 11.2482715,61.95805 8.5803,61.737 C6.37171827,61.6719249 4.23111044,60.958389 2.4252,59.6853 C1.04692097,58.7891296 0.153842325,57.3121447 0.0005,55.6753 C0.127394853,53.8815286 0.536560505,52.1190182 1.2129,50.4528 L15.4815,10.0718 C16.0303034,8.71884292 16.4366309,7.31238151 16.6939,5.8752 C16.6869276,4.99787995 16.1800886,4.20140201 15.3883,3.8235 C13.8070422,3.11058209 12.0864323,2.7601052 10.3523,2.7977 L33.8535,-9.99999999e-05 L33.8529,-2.71050543e-20 Z" id="L_橙" fill="#FA640F"></path>
            <path d="M62.4833,28.9102 C65.5661993,27.286119 68.2190641,24.9527291 70.2233,22.1023 C71.5825246,20.2434716 72.2429609,17.9649805 72.0885,15.6674 C71.8926938,13.7757282 70.8229328,12.0846844 69.1975,11.0974 C67.4256,9.885 64.9075,9.3255 61.7368,9.3255 C55.2572485,9.35479956 48.8728789,10.8872564 43.086,13.8023 C37.4399598,16.4160452 32.6061295,20.5084553 29.0967,25.6459 C25.8326333,30.5886333 24.4337667,35.5313333 24.9001,40.474 C25.2375437,43.7283029 26.8054986,46.7307476 29.2833,48.8673 C31.9878333,51.2920333 36.5575,52.5044 42.9923,52.5044 C47.6700304,52.5643492 52.3083786,51.6430363 56.6081,49.7999 C60.8507866,48.0531385 64.667618,45.4133141 67.7991,42.0599 L67.3328,39.3554 C64.4685772,41.6260136 61.3365362,43.536559 58.0069,45.0442 C55.437514,46.1386186 52.6851129,46.739713 49.8934,46.8161 C47.3713458,47.0125117 44.8784884,46.1703131 42.9923,44.4846 C42.1709134,43.8035308 41.4763351,42.9826779 40.9406,42.0599 C40.3283833,40.8940992 39.9184309,39.6328632 39.7282,38.3299 C39.648447,37.0796 39.74268,35.8242814 40.0082,34.5999 C40.1817753,33.7190816 40.3996519,32.8475752 40.661,31.9887 C42.5262,24.8078 46.2565,18.2797 49.3341,15.2021 C50.9221389,13.4615482 53.135667,12.4218722 55.4892,12.3111 C56.3697461,12.3160245 57.2351737,12.5403895 58.0072,12.9639 C58.8581488,13.4266232 59.5429528,14.1440519 59.9656,15.0156 C60.4442749,15.9327549 60.6392133,16.971603 60.5256,17.9999 C60.2813493,19.5111804 59.8425033,20.9844877 59.22,22.3831 C58.1435169,24.92786 56.6283565,27.2637267 54.7436,29.2842 C51.293,33.1078 44.8582,34.2269 44.7649,34.4134 C46.8095113,34.2861749 48.8383986,33.9740332 50.8267,33.4808 C54.8785393,32.4208159 58.7913041,30.8868985 62.484,28.9108 L62.4833,28.9102 Z" id="E_蓝" fill="#0BCEFF"></path>
            <path d="M109.3925,11.0045 C111.915287,11.9102066 114.1411,13.4909561 115.8274,15.5745 C117.322005,17.4457267 118.230461,19.7168148 118.4387,22.1026 C118.905,26.9521 117.5994,31.8015 114.5218,36.7442 C111.399657,41.6939497 106.980806,45.6934828 101.7453,48.3083 C96.5686632,51.0367422 90.8102937,52.4763174 84.9587,52.5049 C79.7362,52.5049 75.5396,51.2925 72.462,48.8678 C69.5605299,46.7585378 67.7219064,43.4899064 67.426,39.915 C67.0250773,35.8643304 67.8022699,31.7840518 69.6642,28.1644 C71.5129609,24.5645535 73.9744611,21.3141362 76.9384,18.5588 C80.1023514,15.7464925 83.7313729,13.5059655 87.6632,11.9374 C91.789725,10.1794879 96.2341802,9.29061053 100.7194,9.3262 C103.691364,9.32369496 106.636006,9.89350202 109.3925,11.0045 Z M85.8375,50.3619 C90.4901,52.0553 97.4195,44.7524 101.3147,34.0504 C105.2099,23.3484 104.5959,13.3004 99.9433,11.6065 C95.2907,9.9126 88.3613,17.216 84.4661,27.918 C80.5709,38.62 81.1848,48.6685 85.8375,50.3619 L85.8375,50.3619 Z" id="O_绿" fill="#8CC824"></path>
        </g>
    </g>
</svg>