<?xml version="1.0" encoding="UTF-8"?>
<svg width="142px" height="87px" viewBox="0 0 142 87" version="1.1" xmlns="http://www.w3.org/2000/svg" xmlns:xlink="http://www.w3.org/1999/xlink">
    <!-- Generator: Sketch 44.1 (41455) - http://www.bohemiancoding.com/sketch -->
    <title>@1x理优教育</title>
    <desc>Created with Sketch.</desc>
    <defs></defs>
    <g id="Page-1" stroke="none" stroke-width="1" fill="none" fill-rule="evenodd">
        <g id="leo理优教育" transform="translate(-122.000000, 14.000000)" fill-rule="nonzero" fill="#0BCEFF">
            <path d="M210.4267,16.6017 C211.5867,15.3938 212.6745,14.4889 213.979,12.9911 L211.4666,11.1551 C211.4666,11.1551 206.0975,16.3118 205.8076,16.6017 L205.0346,16.6017 L205.4273,14.7788 L207.0473,14.7788 L210.7596,11.1552 L206.347,11.1552 L206.7764,9.1394 L203.0078,9.1394 L202.5784,11.1552 L198.6165,11.1552 L197.745,14.7788 L201.755,14.7788 L201.3623,16.6017 L196.1923,16.6017 L195.35,20.3707 L202.2108,20.3707 C201.4861,21.0471 200.9825,21.6754 200.3544,22.2069 L195.0017,22.2552 L194.3244,25.8333 L196.7693,25.9299 C196.0706,26.6134 194.1612,28.7536 193.7982,29.1638 C195.349019,29.1916452 196.893237,28.9549212 198.3645,28.4638 C199.485191,27.7743749 200.495657,26.9200939 201.3619,25.9297 L203.0072,25.9297 L200.6433,27.0507 L200.0225,29.3698 L193.3476,29.9013 L192.5262,33.6213 C194.5071,33.3797 197.0678,33.1381 199.387,32.8966 L199.2904,33.3314 C199.181179,34.1631022 198.434792,34.7602113 197.5994,34.6842 C196.8264,34.6842 195.8117,34.6359 194.5072,34.5876 C194.5072,35.7476 194.5072,36.9067 194.4589,38.0663 C196.5365,38.0663 198.1789,38.018 199.2904,37.9214 C201.0781,37.7281 202.2376,36.6169 202.7204,34.5876 L203.2036,32.51 C204.8463,32.3651 208.5183,32.0752 208.5183,32.0752 L209.243,28.5965 C209.243,28.5965 205.7643,28.8865 203.9283,29.0313 L204.1699,27.8234 L208.3836,25.9294 L209.1092,22.2547 L205.0024,22.2064 C205.6305,21.6264 206.2203,20.95 206.8484,20.3219 L209.9765,20.3219 L210.87,18.9306 L211.4593,16.6012 L210.4267,16.6017 Z M221.0814,9.1394 L217.0714,9.1394 C215.6219,12.6181 209.7275,21.4946 209.5342,21.7362 C210.19968,22.9441913 210.765232,24.204594 211.2252,25.5048 C211.708333,24.9248 212.1915,24.2967 212.6747,23.6205 C212.726511,25.7627589 213.051228,27.8896721 213.641,29.9498 C211.4185,32.0757 205.893,34.401 205.893,34.401 L207.9882,38.0185 C210.593637,36.9526649 213.033926,35.5210457 215.2355,33.7668 C216.610935,35.8395733 218.68588,37.3486212 221.0816,38.0185 L222.09,33.5607 C220.539787,32.8523649 219.267777,31.6506123 218.4726,30.1431 C221.2266,26.5195 222.8852,21.8772 224.4313,16.6109 L225.6875,16.6109 L226.5636,12.8742 L219.1714,12.8742 C219.896,11.5212 220.3566,10.6859 221.0814,9.1394 Z M216.3114,18.0536 C216.6014,17.5704 216.8429,17.0873 217.1328,16.6041 L220.6598,16.6041 C219.6452,20.2277 218.6277,23.3448 216.7434,26.0021 C216.14372,23.3971135 215.997446,20.7082666 216.311,18.0536 L216.3114,18.0536 Z M230.1521,38.1151 L231.2396,33.3924 L246.3096,33.3924 C246.1163,34.1171 246.0024,35.1042 245.4391,35.4094 C244.8758,35.7146 243.6923,35.4094 243.2091,35.4094 C242.0012,35.4094 240.6001,35.4094 239.054,35.3128 C239.054,35.6993 239.1023,35.8928 239.1506,36.5207 C243.5956,36.8589 243.1125,38.3084 244.9484,38.1151 C245.963,38.0185 247.9643,38.223 248.6407,37.8851 C249.752,37.3536 250.4335,34.8065 250.82,33.1151 L252.9884,22.2263 L229.1207,22.2263 L225.755,38.115 L230.1521,38.1151 Z M247.9604,25.9397 L247.4955,27.8411 L232.5274,27.8411 L232.9366,25.9397 L247.9604,25.9397 Z M247.1462,29.7097 L246.7251,31.4141 L231.7029,31.4141 L232.0945,29.7097 L247.1462,29.7097 Z M258.1374,11.0348 L245.6437,11.0348 L244.9825,9.1395 L240.779,9.1395 L241.3368,11.0348 L228.8096,11.0348 L228.1707,14.6866 L235.2247,14.6866 C233.124919,15.9979951 230.909229,17.1139406 228.6055,18.0204 L229.1855,21.2575 C233.244,20.8227 240.443,20.5811 250.8791,20.3875 C251.6038,21.0156 251.2261,20.7257 251.9025,21.2575 L256.2904,19.6148 C255.0342,18.6968 253.5187,17.8755 251.1513,16.0395 L245.3713,16.0395 C245.9513,16.5227 246.5313,17.0058 247.159,17.4406 C242.2309,17.6339 238.3656,17.7306 235.5633,17.8271 C237.2543,16.8608 239.1386,15.8462 241.1679,14.7832 L257.4985,14.7349 L258.1374,11.0348 Z M188.5324,16.1048 C186.601557,16.1048 185.0363,14.5395427 185.0363,12.6087 C185.0363,10.6778573 186.601557,9.1126 188.5324,9.1126 C190.463243,9.1126 192.0285,10.6778573 192.0285,12.6087 C192.032215,13.5370716 191.664996,14.4284778 191.008439,15.084847 C190.351882,15.7412163 189.460371,16.1081806 188.532,16.1042 L188.5324,16.1048 Z M193.3647,19.4786 L194.2163,15.705 L191.837,15.705 C191.060196,16.7153293 189.858087,17.3074227 188.58365,17.3074227 C187.309213,17.3074227 186.107104,16.7153293 185.3303,15.705 L182.077,15.705 C183.1453,11.0435 183.4825,9.9617 183.6282,9.2333 L179.4037,9.2333 C178.821,11.904 178.4837,12.9858 177.8525,15.705 L172.5598,15.705 L171.7082,19.4786 L176.9038,19.4786 C175.2529,25.4026 171.8664,33.1499 167.7575,37.9792 C169.811556,38.2094911 171.876209,37.6487832 173.5316,36.4111 C175.2567,35.0377 179.2345,27.6848 181.2254,19.4786 L182.8183,19.4786 L179.5008,33.5605 C178.8696,36.4739 179.8893,37.9792 182.5599,37.9792 L185.2306,37.9792 C186.242328,37.9902062 187.241775,37.7569389 188.1441,37.2992 C189.050966,36.8041999 189.74276,35.9913419 190.0864,35.017 C190.9119,32.9776 188.0955,32.3949 189.795,28.1704 C189.5037,28.1218 188.8724,27.9762 188.5325,27.9276 C188.01151,29.7709701 187.395622,31.58619 186.6873,33.366 C186.423449,33.8023104 185.932156,34.0479377 185.4248,33.9972 L184.7936,33.9972 C184.0167,33.9972 183.7736,33.5116 183.9681,32.4919 L186.8095,19.4783 L193.3647,19.4786 Z M171.1489,17.0995 C173.032506,14.5545109 174.757925,11.8961669 176.3154,9.1395 L171.556,9.1395 C168.206,14.4808 164.0587,19.7695 164.0587,19.7695 L162.5049,26.8589 C162.5049,26.8589 164.4472,24.9652 165.4184,23.994 L162.4502,37.9621 L166.626,37.9621 L171.1489,17.0995 Z M159.6321,23.595 C161.028954,22.4038413 162.018849,20.8061078 162.4635,19.025 L164.5995,9.1399 L146.2695,9.1399 L142.693,25.731 L149.846,25.731 L149.3493,28.016 L142.0472,28.016 L141.2524,31.6422 L148.5545,31.6422 L147.9584,34.4239 L140.656,34.4239 L139.9109,38.0501 L159.8798,38.0501 C160.034379,37.1824967 159.837821,36.2890271 159.3334,35.5664 C158.738339,34.8348381 157.842368,34.4142765 156.8994,34.4239 L152.0314,34.4239 L152.6275,31.6422 L159.9296,31.6422 L160.7244,27.9663 L153.4223,27.9663 L153.919,25.6813 C155.988968,25.5721285 157.978751,24.8452777 159.6317,23.5945 L159.6321,23.595 Z M156.7009,12.7159 L159.8304,12.7159 L159.1846,15.7459 L156.0551,15.7459 L156.7009,12.7159 Z M155.3597,19.0742 L158.4892,19.0742 C158.202114,19.8867215 157.725274,20.619003 157.0983,21.2102 C156.377517,21.6866841 155.565531,22.0080868 154.7139,22.154 L155.3597,19.0742 Z M150.591,22.1042 L147.4615,22.1042 L148.1073,19.0242 L151.2368,19.0242 L150.591,22.1042 Z M151.9819,15.7459 L148.8524,15.7459 L149.4982,12.7159 L152.6277,12.7159 L151.9819,15.7459 Z M140.4435,30.7352 L137.165,31.679 L139.106,23.0764 L142.086,23.0764 L142.8806,19.4253 L139.9006,19.4253 L141.2967,12.8938 L144.2767,12.8938 L145.1548,9.1392 L134.9224,9.1392 L134.0443,12.8938 L137.2234,12.8938 L135.8273,19.4253 L132.7473,19.4253 L131.9527,23.0764 L135.0327,23.0764 L132.8433,32.7221 L129.5648,33.6162 L128.5713,38.2362 C132.0485,37.193 139.4996,35.1067 139.4996,35.1067 L140.4435,30.7352 Z" id="理优教育"></path>
            <path d="M203.965,50.5764 C203.753819,50.7246581 203.60583,50.9466411 203.5502,51.1986 C203.472362,51.4097504 203.511788,51.6463079 203.6539,51.8208 C203.796402,51.9870118 204.004971,52.0818926 204.2239,52.0801 C204.471505,52.0726203 204.709211,51.981184 204.898,51.8208 C205.109174,51.672535 205.257161,51.450555 205.3128,51.1986 C205.390638,50.9874496 205.351212,50.7508921 205.2091,50.5764 C205.1054,50.369 204.898,50.3171 204.6391,50.3171 C204.387206,50.3002253 204.140651,50.3950655 203.965,50.5764 L203.965,50.5764 Z M199.6613,43.369 L198.365,43.369 L197.0169,48.7616 C196.885878,49.4248915 196.539559,50.0263798 196.0317,50.4727 C195.651443,50.7889131 195.177649,50.9711279 194.6835,50.9912 C194.265442,50.9723653 193.872741,50.7853733 193.5946,50.4727 C193.309862,49.9453998 193.271926,49.3194273 193.4909,48.7616 L194.839,43.369 L192.506,43.369 L191.1578,48.7097 C190.822212,49.5653044 190.918708,50.5301065 191.4171,51.3023 C192.03465,51.9467697 192.914061,52.2717742 193.8023,52.1838 L194.8393,52.1838 C195.860791,52.2100277 196.86267,51.9003546 197.6912,51.3023 C198.508408,50.6479586 199.075904,49.7326357 199.2986,48.7097 L200.6467,43.369 L199.6615,43.369 L199.6613,43.369 Z M137.2835,50.8875 L133.5502,50.8875 L135.4687,43.369 L133.1354,43.369 L130.9054,52.0283 L138.0091,52.0283 L138.3202,50.8876 L137.2832,50.8876 L137.2835,50.8875 Z M150.2465,43.369 L144.0243,43.369 L141.7943,52.0283 L149.261,52.0283 L149.5721,50.8876 L144.4388,50.8876 L145.1647,48.1395 L149.7795,48.1395 L150.0388,47.0506 L145.424,47.0506 L146.0981,44.5099 L150.9722,44.5099 L151.2833,43.3692 L150.2463,43.3692 L150.2465,43.369 Z M174.8243,43.369 L168.6021,43.369 L166.4243,52.0283 L173.8391,52.0283 L174.1502,50.8876 L169.0687,50.8876 L169.7428,48.1395 L174.3576,48.1395 L174.6687,47.0506 L170.0539,47.0506 L170.6761,44.5099 L175.602,44.5099 L175.8613,43.3692 L174.8243,43.3692 L174.8243,43.369 Z M184.3132,43.369 L180.1132,43.369 L177.8832,52.0283 L182.0313,52.0283 C183.289287,52.0815196 184.52381,51.6761716 185.5054,50.8876 C186.441915,50.0534499 187.094529,48.9476376 187.3721,47.7246 C187.746949,46.6874589 187.671769,45.5409132 187.1647,44.5616 C186.485641,43.696063 185.406273,43.2446325 184.3132,43.369 Z M180.528,50.8875 L182.1873,44.5097 L182.7573,44.5097 C183.56651,44.3995246 184.37877,44.6896228 184.9351,45.2875 C185.32904,46.0443435 185.367022,46.9369268 185.0388,47.7245 C184.850188,48.6559359 184.379523,49.5067712 183.6907,50.1615 C182.944478,50.7168278 182.026779,50.9921448 181.0981,50.9393 L180.5281,50.9393 L180.528,50.8875 Z M245.2051,43.369 L241.2562,49.1974 L240.209,43.369 L237.8242,43.369 L235.5942,52.0283 L237.8242,52.0283 L238.9269,46.9526 L239.9255,52.0283 L241.5368,52.0283 L245.2052,46.9526 L243.4762,52.0283 L245.8614,52.0283 L248.0392,43.369 L245.2051,43.369 Z M229.6317,43.2134 L228.5947,43.2134 C227.3287,43.1834571 226.10095,43.6485183 225.1725,44.5097 C224.223004,45.3629527 223.554152,46.4837372 223.254,47.7245 C222.902468,48.7871125 222.996004,49.9467656 223.5133,50.9393 C224.145046,51.8441547 225.214617,52.3393276 226.3133,52.2356 L227.3503,52.2356 C228.614707,52.2563179 229.839132,51.7925161 230.7725,50.9393 C231.721996,50.0860473 232.390848,48.9652628 232.691,47.7245 C233.075372,46.6660717 232.980742,45.4928408 232.4317,44.5097 C231.799442,43.6054658 230.730235,43.1104995 229.6317,43.2135 L229.6317,43.2134 Z M225.7428,50.1097 C225.411483,49.3555044 225.374489,48.5046044 225.6391,47.7245 C225.8523,46.8023018 226.319268,45.9581495 226.9872,45.2875 C227.49278,44.7923672 228.150328,44.4818574 228.8539,44.406 C229.437309,44.4511948 229.960993,44.7809292 230.2539,45.2875 C230.587215,46.0593864 230.624138,46.9270885 230.3576,47.7245 C230.156601,48.6513522 229.6878,49.4987561 229.0094,50.1615 C228.499318,50.6418845 227.841063,50.9345678 227.1427,50.9915 C226.554721,50.960313 226.024911,50.6266225 225.7428,50.1098 L225.7428,50.1097 Z M216.9798,43.2134 L215.9428,43.2134 C214.63779,43.1921748 213.374865,43.6750442 212.4169,44.5615 C211.525469,45.4152805 210.911232,46.517284 210.6539,47.7245 C210.297673,48.742078 210.35348,49.858615 210.8094,50.8356 C211.422931,51.7945973 212.530822,52.3183 213.6613,52.1837 L214.6983,52.1837 C215.620836,52.1895311 216.523926,51.9185971 217.2909,51.4059 C218.170817,50.825171 218.856893,49.9944957 219.2609,49.0207 L216.928,49.0207 C216.638667,49.629178 216.190909,50.1485747 215.6317,50.5244 C215.264867,50.7387829 214.859793,50.8796722 214.4391,50.9392 C213.851126,50.9080882 213.32128,50.5744746 213.0391,50.0577 C212.724858,49.2789397 212.706433,48.4121097 212.9873,47.6207 C213.182794,46.7181694 213.632621,45.8904848 214.2836,45.2355 C214.77205,44.7368228 215.408645,44.4094404 216.0984,44.3022 C216.436791,44.3357883 216.759543,44.4613202 217.0317,44.6652 C217.40564,44.9868523 217.599168,45.4706912 217.5502,45.9615 L219.8835,45.9615 C220.024841,45.2101355 219.79288,44.4368979 219.2613,43.8874 C218.598385,43.4123363 217.794548,43.1748916 216.9799,43.2135 L216.9798,43.2134 Z M160.4098,43.2134 L159.3728,43.2134 C158.1068,43.1834571 156.87905,43.6485183 155.9506,44.5097 C155.001104,45.3629527 154.332252,46.4837372 154.0321,47.7245 C153.680549,48.7871005 153.774048,49.9467485 154.2913,50.9393 C154.923046,51.8441547 155.992617,52.3393276 157.0913,52.2356 L158.1283,52.2356 C159.392709,52.256328 160.617137,51.7925249 161.5505,50.9393 C162.499996,50.0860473 163.168848,48.9652628 163.469,47.7245 C163.853372,46.6660717 163.758742,45.4928408 163.2097,44.5097 C162.577419,43.6053832 161.508108,43.1104036 160.4095,43.2135 L160.4098,43.2134 Z M156.5209,50.1097 C156.189573,49.3555067 156.152579,48.504603 156.4172,47.7245 C156.6304,46.8023018 157.097368,45.9581495 157.7653,45.2875 C158.27088,44.7923672 158.928428,44.4818574 159.632,44.406 C160.215409,44.4511948 160.739093,44.7809292 161.032,45.2875 C161.365324,46.0593843 161.402247,46.9270898 161.1357,47.7245 C160.934735,48.6513428 160.465968,49.4987469 159.7876,50.1615 C159.277514,50.6418778 158.619261,50.9345599 157.9209,50.9915 C157.332775,50.9604486 156.802785,50.6267395 156.5206,50.1098 L156.5209,50.1097 Z" id="LEOEDU.COM"></path>
        </g>
    </g>
</svg>